# xmcd CD database file
#
# Track frame offsets:
#	150
#	14865
#	27408
#	39716
#	56276
#	68077
#	83663
#	97252
#	117214
#	131715
#	151577
#
# Disc length: 2257 seconds
#
# Revision: 3
# Processed by: cddbd v1.5.2PL0 Copyright (c) Steve Scherf et al.
# Submitted via: CDex 1.60beta1
#
DISCID=8e08cf0b
DTITLE=Libbi Bosworth - Outskirts of You
DYEAR=1996
DGENRE=Country
TTITLE0=Ain't Gonna Waste My Time
TTITLE1=East Texas Pines
TTITLE2=Don't Call Me Crazy
TTITLE3=When the Sun Comes Up
TTITLE4=It's Late
TTITLE5=How to Stop Hurting You
TTITLE6=Outskirts of You
TTITLE7=Up All Night
TTITLE8=Honky Tonkin'
TTITLE9=I Won't Let Your Memory Drag Me Down
TTITLE10=My Old Man
EXTD=YEAR: 1996
EXTT0=
EXTT1=
EXTT2=
EXTT3=
EXTT4=
EXTT5=
EXTT6=
EXTT7=
EXTT8=
EXTT9=
EXTT10=
PLAYORDER=
